<svg xmlns="http://www.w3.org/2000/svg" width="60" height="60" class="uil-default" preserveAspectRatio="xMidYMid" viewBox="0 0 100 100"><rect width="100" height="100" x="0" y="0" fill="none" class="bk"/><rect width="7" height="20" x="46.5" y="40" fill="#252525" rx="5" ry="5" transform="rotate(0 50 50) translate(0 -30)"><animate attributeName="opacity" begin="0s" dur=".5s" from="1" repeatCount="indefinite" to="0"/></rect><rect width="7" height="20" x="46.5" y="40" fill="#252525" rx="5" ry="5" transform="rotate(30 50 50) translate(0 -30)"><animate attributeName="opacity" begin="0.041666666666666664s" dur=".5s" from="1" repeatCount="indefinite" to="0"/></rect><rect width="7" height="20" x="46.5" y="40" fill="#252525" rx="5" ry="5" transform="rotate(60 50 50) translate(0 -30)"><animate attributeName="opacity" begin="0.08333333333333333s" dur=".5s" from="1" repeatCount="indefinite" to="0"/></rect><rect width="7" height="20" x="46.5" y="40" fill="#252525" rx="5" ry="5" transform="rotate(90 50 50) translate(0 -30)"><animate attributeName="opacity" begin="0.125s" dur=".5s" from="1" repeatCount="indefinite" to="0"/></rect><rect width="7" height="20" x="46.5" y="40" fill="#252525" rx="5" ry="5" transform="rotate(120 50 50) translate(0 -30)"><animate attributeName="opacity" begin="0.16666666666666666s" dur=".5s" from="1" repeatCount="indefinite" to="0"/></rect><rect width="7" height="20" x="46.5" y="40" fill="#252525" rx="5" ry="5" transform="rotate(150 50 50) translate(0 -30)"><animate attributeName="opacity" begin="0.20833333333333334s" dur=".5s" from="1" repeatCount="indefinite" to="0"/></rect><rect width="7" height="20" x="46.5" y="40" fill="#252525" rx="5" ry="5" transform="rotate(180 50 50) translate(0 -30)"><animate attributeName="opacity" begin="0.25s" dur=".5s" from="1" repeatCount="indefinite" to="0"/></rect><rect width="7" height="20" x="46.5" y="40" fill="#252525" rx="5" ry="5" transform="rotate(210 50 50) translate(0 -30)"><animate attributeName="opacity" begin="0.2916666666666667s" dur=".5s" from="1" repeatCount="indefinite" to="0"/></rect><rect width="7" height="20" x="46.5" y="40" fill="#252525" rx="5" ry="5" transform="rotate(240 50 50) translate(0 -30)"><animate attributeName="opacity" begin="0.3333333333333333s" dur=".5s" from="1" repeatCount="indefinite" to="0"/></rect><rect width="7" height="20" x="46.5" y="40" fill="#252525" rx="5" ry="5" transform="rotate(270 50 50) translate(0 -30)"><animate attributeName="opacity" begin="0.375s" dur=".5s" from="1" repeatCount="indefinite" to="0"/></rect><rect width="7" height="20" x="46.5" y="40" fill="#252525" rx="5" ry="5" transform="rotate(300 50 50) translate(0 -30)"><animate attributeName="opacity" begin="0.4166666666666667s" dur=".5s" from="1" repeatCount="indefinite" to="0"/></rect><rect width="7" height="20" x="46.5" y="40" fill="#252525" rx="5" ry="5" transform="rotate(330 50 50) translate(0 -30)"><animate attributeName="opacity" begin="0.4583333333333333s" dur=".5s" from="1" repeatCount="indefinite" to="0"/></rect></svg>